<svg width="112" height="21" viewBox="0 0 112 21" fill="none" xmlns="http://www.w3.org/2000/svg">
<path d="M15.94 1.202V20H12.43V11.784H3.603V20H0.0930002V1.202H3.603V9.288H12.43V1.202H15.94ZM23.1162 3.984V9.197H29.6942V11.888H23.1162V17.205H31.4622V20H19.6062V1.202H31.4622V3.984H23.1162ZM43.9733 12.902L41.6853 6.649C41.5726 6.37167 41.4556 6.04233 41.3343 5.661C41.2129 5.27967 41.0916 4.868 40.9703 4.426C40.8576 4.868 40.7406 5.284 40.6193 5.674C40.4979 6.05533 40.3809 6.389 40.2683 6.675L37.9933 12.902H43.9733ZM50.1483 20H47.4443C47.1409 20 46.8939 19.9263 46.7033 19.779C46.5126 19.623 46.3696 19.4323 46.2743 19.207L44.8703 15.372H37.0833L35.6793 19.207C35.6099 19.4063 35.4756 19.5883 35.2763 19.753C35.0769 19.9177 34.8299 20 34.5353 20H31.8053L39.2023 1.202H42.7643L50.1483 20ZM57.255 10.146C57.9137 10.146 58.4857 10.0637 58.971 9.899C59.465 9.73433 59.868 9.509 60.18 9.223C60.5007 8.92833 60.739 8.58167 60.895 8.183C61.051 7.78433 61.129 7.34667 61.129 6.87C61.129 5.91667 60.8127 5.18433 60.18 4.673C59.556 4.16167 58.5983 3.906 57.307 3.906H55.071V10.146H57.255ZM66.251 20H63.092C62.494 20 62.0607 19.766 61.792 19.298L57.84 13.279C57.6927 13.0537 57.528 12.8933 57.346 12.798C57.1727 12.7027 56.9127 12.655 56.566 12.655H55.071V20H51.574V1.202H57.307C58.581 1.202 59.673 1.33633 60.583 1.605C61.5017 1.865 62.2513 2.23333 62.832 2.71C63.4213 3.18667 63.8547 3.75867 64.132 4.426C64.4093 5.08467 64.548 5.81267 64.548 6.61C64.548 7.24267 64.4527 7.84067 64.262 8.404C64.08 8.96733 63.8113 9.47867 63.456 9.938C63.1093 10.3973 62.676 10.8003 62.156 11.147C61.6447 11.4937 61.0597 11.7667 60.401 11.966C60.6263 12.096 60.8343 12.252 61.025 12.434C61.2157 12.6073 61.389 12.8153 61.545 13.058L66.251 20ZM77.771 4.621C77.667 4.803 77.5544 4.93733 77.433 5.024C77.3204 5.102 77.1774 5.141 77.004 5.141C76.822 5.141 76.6227 5.076 76.406 4.946C76.198 4.80733 75.9467 4.65567 75.652 4.491C75.3574 4.32633 75.0107 4.179 74.612 4.049C74.222 3.91033 73.7584 3.841 73.221 3.841C72.7357 3.841 72.311 3.90167 71.947 4.023C71.583 4.13567 71.2754 4.296 71.024 4.504C70.7814 4.712 70.5994 4.96333 70.478 5.258C70.3567 5.544 70.296 5.86033 70.296 6.207C70.296 6.649 70.4174 7.01733 70.66 7.312C70.9114 7.60667 71.2407 7.858 71.648 8.066C72.0554 8.274 72.519 8.46033 73.039 8.625C73.559 8.78967 74.092 8.96733 74.638 9.158C75.184 9.34 75.717 9.55667 76.237 9.808C76.757 10.0507 77.2207 10.3627 77.628 10.744C78.0354 11.1167 78.3604 11.576 78.603 12.122C78.8544 12.668 78.98 13.331 78.98 14.111C78.98 14.9603 78.8327 15.7577 78.538 16.503C78.252 17.2397 77.8274 17.8853 77.264 18.44C76.7094 18.986 76.029 19.4193 75.223 19.74C74.417 20.052 73.494 20.208 72.454 20.208C71.856 20.208 71.2667 20.1473 70.686 20.026C70.1054 19.9133 69.5464 19.7487 69.009 19.532C68.4804 19.3153 67.982 19.0553 67.514 18.752C67.046 18.4487 66.63 18.1107 66.266 17.738L67.293 16.061C67.3797 15.9397 67.4924 15.84 67.631 15.762C67.7697 15.6753 67.917 15.632 68.073 15.632C68.2897 15.632 68.5237 15.723 68.775 15.905C69.0264 16.0783 69.3254 16.2733 69.672 16.49C70.0187 16.7067 70.4217 16.906 70.881 17.088C71.349 17.2613 71.908 17.348 72.558 17.348C73.5547 17.348 74.326 17.114 74.872 16.646C75.418 16.1693 75.691 15.489 75.691 14.605C75.691 14.111 75.5654 13.708 75.314 13.396C75.0714 13.084 74.7464 12.824 74.339 12.616C73.9317 12.3993 73.468 12.2173 72.948 12.07C72.428 11.9227 71.8994 11.7623 71.362 11.589C70.8247 11.4157 70.296 11.2077 69.776 10.965C69.256 10.7223 68.7924 10.406 68.385 10.016C67.9777 9.626 67.6484 9.14067 67.397 8.56C67.1544 7.97067 67.033 7.247 67.033 6.389C67.033 5.70433 67.1674 5.037 67.436 4.387C67.7134 3.737 68.112 3.16067 68.632 2.658C69.152 2.15533 69.7934 1.75233 70.556 1.449C71.3187 1.14567 72.194 0.994 73.182 0.994C74.2914 0.994 75.314 1.16733 76.25 1.514C77.186 1.86067 77.9834 2.346 78.642 2.97L77.771 4.621ZM91.0617 12.902L88.7737 6.649C88.6611 6.37167 88.5441 6.04233 88.4227 5.661C88.3014 5.27967 88.1801 4.868 88.0587 4.426C87.9461 4.868 87.8291 5.284 87.7077 5.674C87.5864 6.05533 87.4694 6.389 87.3567 6.675L85.0817 12.902H91.0617ZM97.2367 20H94.5327C94.2294 20 93.9824 19.9263 93.7917 19.779C93.6011 19.623 93.4581 19.4323 93.3627 19.207L91.9587 15.372H84.1717L82.7677 19.207C82.6984 19.4063 82.5641 19.5883 82.3647 19.753C82.1654 19.9177 81.9184 20 81.6237 20H78.8937L86.2907 1.202H89.8527L97.2367 20ZM104.78 12.72V20H101.296V12.72L94.4454 1.202H97.5264C97.8297 1.202 98.068 1.27567 98.2414 1.423C98.4234 1.57033 98.575 1.75667 98.6964 1.982L102.128 8.261C102.328 8.63367 102.501 8.98467 102.648 9.314C102.804 9.64333 102.943 9.97267 103.064 10.302C103.177 9.97267 103.307 9.64333 103.454 9.314C103.602 8.98467 103.771 8.63367 103.961 8.261L107.38 1.982C107.476 1.79133 107.619 1.61367 107.809 1.449C108 1.28433 108.243 1.202 108.537 1.202H111.631L104.78 12.72Z" fill="white"/>
</svg>
